<svg width="276" height="38" viewBox="0 0 276 38" fill="none" xmlns="http://www.w3.org/2000/svg">
<path d="M17.9822 16.168H11.7902V37H4.63819V16.168H0.702188V12.712L4.63819 10.792V8.872C4.63819 6.632 5.00619 4.904 5.74219 3.688C6.51019 2.44 7.58219 1.56 8.95819 1.048C10.3662 0.535998 12.0142 0.279998 13.9022 0.279998C15.3102 0.279998 16.5742 0.391998 17.6942 0.615999C18.8462 0.839998 19.7742 1.096 20.4782 1.384L18.6542 6.616C18.1102 6.456 17.5182 6.312 16.8782 6.184C16.2382 6.024 15.5022 5.944 14.6702 5.944C13.6782 5.944 12.9422 6.248 12.4622 6.856C12.0142 7.464 11.7902 8.232 11.7902 9.16V10.792H17.9822V16.168ZM29.2142 37H22.0622V0.519998H29.2142V37ZM47.5206 10.312C51.1366 10.312 54.0006 11.352 56.1126 13.432C58.2246 15.48 59.2806 18.408 59.2806 22.216V25.672H42.3846C42.4486 27.688 43.0406 29.272 44.1606 30.424C45.3126 31.576 46.8966 32.152 48.9126 32.152C50.6086 32.152 52.1446 31.992 53.5206 31.672C54.8966 31.32 56.3206 30.792 57.7926 30.088V35.608C56.5126 36.248 55.1526 36.712 53.7126 37C52.3046 37.32 50.5926 37.48 48.5766 37.48C45.9526 37.48 43.6326 37 41.6166 36.04C39.6006 35.048 38.0166 33.56 36.8646 31.576C35.7126 29.592 35.1366 27.096 35.1366 24.088C35.1366 21.016 35.6486 18.472 36.6726 16.456C37.7286 14.408 39.1846 12.872 41.0406 11.848C42.8966 10.824 45.0566 10.312 47.5206 10.312ZM47.5686 15.4C46.1926 15.4 45.0406 15.848 44.1126 16.744C43.2166 17.64 42.6886 19.032 42.5286 20.92H52.5606C52.5286 19.32 52.1126 18.008 51.3126 16.984C50.5126 15.928 49.2646 15.4 47.5686 15.4ZM69.5184 23.608L61.0704 10.792H69.1824L74.2704 19.144L79.4064 10.792H87.5184L78.9744 23.608L87.9024 37H79.7904L74.2704 28.024L68.7504 37H60.6384L69.5184 23.608ZM89.4444 27.784V20.488H102.356V27.784H89.4444ZM114.56 0.519998V9.016C114.56 10.008 114.528 10.984 114.464 11.944C114.4 12.904 114.336 13.656 114.272 14.2H114.56C115.264 13.112 116.208 12.2 117.392 11.464C118.576 10.696 120.112 10.312 122 10.312C124.944 10.312 127.328 11.464 129.152 13.768C130.976 16.04 131.888 19.4 131.888 23.848C131.888 28.328 130.96 31.72 129.104 34.024C127.248 36.328 124.816 37.48 121.808 37.48C119.888 37.48 118.368 37.144 117.248 36.472C116.16 35.768 115.264 34.984 114.56 34.12H114.08L112.88 37H107.408V0.519998H114.56ZM119.696 16.024C117.84 16.024 116.528 16.6 115.76 17.752C115.024 18.904 114.624 20.664 114.56 23.032V23.8C114.56 26.328 114.928 28.28 115.664 29.656C116.432 31 117.808 31.672 119.792 31.672C121.264 31.672 122.432 31 123.296 29.656C124.16 28.28 124.592 26.312 124.592 23.752C124.592 21.192 124.144 19.272 123.248 17.992C122.384 16.68 121.2 16.024 119.696 16.024ZM148.535 10.264C152.055 10.264 154.743 11.032 156.599 12.568C158.487 14.072 159.431 16.392 159.431 19.528V37H154.439L153.047 33.448H152.855C151.735 34.856 150.551 35.88 149.303 36.52C148.055 37.16 146.343 37.48 144.167 37.48C141.831 37.48 139.895 36.808 138.359 35.464C136.823 34.088 136.055 31.992 136.055 29.176C136.055 26.392 137.031 24.344 138.983 23.032C140.935 21.688 143.863 20.952 147.767 20.824L152.327 20.68V19.528C152.327 18.152 151.959 17.144 151.223 16.504C150.519 15.864 149.527 15.544 148.247 15.544C146.967 15.544 145.719 15.736 144.503 16.12C143.287 16.472 142.071 16.92 140.855 17.464L138.503 12.616C139.911 11.88 141.463 11.304 143.159 10.888C144.887 10.472 146.679 10.264 148.535 10.264ZM152.327 24.856L149.543 24.952C147.239 25.016 145.639 25.432 144.743 26.2C143.847 26.968 143.399 27.976 143.399 29.224C143.399 30.312 143.719 31.096 144.359 31.576C144.999 32.024 145.831 32.248 146.855 32.248C148.391 32.248 149.687 31.8 150.743 30.904C151.799 29.976 152.327 28.68 152.327 27.016V24.856ZM181.632 10.312C184.448 10.312 186.704 11.08 188.4 12.616C190.096 14.12 190.944 16.552 190.944 19.912V37H183.792V21.688C183.792 19.8 183.456 18.392 182.784 17.464C182.112 16.504 181.04 16.024 179.568 16.024C177.392 16.024 175.904 16.776 175.104 18.28C174.304 19.752 173.904 21.88 173.904 24.664V37H166.752V10.792H172.224L173.184 14.152H173.568C174.4 12.808 175.536 11.832 176.976 11.224C178.448 10.616 180 10.312 181.632 10.312ZM213.179 10.312C215.995 10.312 218.251 11.08 219.947 12.616C221.643 14.12 222.491 16.552 222.491 19.912V37H215.339V21.688C215.339 19.8 215.003 18.392 214.331 17.464C213.659 16.504 212.587 16.024 211.115 16.024C208.939 16.024 207.451 16.776 206.651 18.28C205.851 19.752 205.451 21.88 205.451 24.664V37H198.299V10.792H203.771L204.731 14.152H205.115C205.947 12.808 207.083 11.832 208.523 11.224C209.995 10.616 211.547 10.312 213.179 10.312ZM240.646 10.312C244.262 10.312 247.126 11.352 249.238 13.432C251.35 15.48 252.406 18.408 252.406 22.216V25.672H235.51C235.574 27.688 236.166 29.272 237.286 30.424C238.438 31.576 240.022 32.152 242.038 32.152C243.734 32.152 245.27 31.992 246.646 31.672C248.022 31.32 249.446 30.792 250.918 30.088V35.608C249.638 36.248 248.278 36.712 246.838 37C245.43 37.32 243.718 37.48 241.702 37.48C239.078 37.48 236.758 37 234.742 36.04C232.726 35.048 231.142 33.56 229.99 31.576C228.838 29.592 228.262 27.096 228.262 24.088C228.262 21.016 228.774 18.472 229.798 16.456C230.854 14.408 232.31 12.872 234.166 11.848C236.022 10.824 238.182 10.312 240.646 10.312ZM240.694 15.4C239.318 15.4 238.166 15.848 237.238 16.744C236.342 17.64 235.814 19.032 235.654 20.92H245.686C245.654 19.32 245.238 18.008 244.438 16.984C243.638 15.928 242.39 15.4 240.694 15.4ZM272.845 10.312C273.197 10.312 273.613 10.328 274.093 10.36C274.573 10.392 274.957 10.44 275.245 10.504L274.717 17.224C274.493 17.16 274.157 17.112 273.709 17.08C273.293 17.016 272.925 16.984 272.605 16.984C271.389 16.984 270.221 17.208 269.101 17.656C267.981 18.072 267.069 18.76 266.365 19.72C265.693 20.68 265.357 21.992 265.357 23.656V37H258.205V10.792H263.629L264.685 15.208H265.021C265.789 13.864 266.845 12.712 268.189 11.752C269.533 10.792 271.085 10.312 272.845 10.312Z" fill="#3245F4"/>
</svg>
